<?xml version="1.0" encoding="UTF-8"?>
<!DOCTYPE svg PUBLIC "-//W3C//DTD SVG 1.1//EN" "http://www.w3.org/Graphics/SVG/1.1/DTD/svg11.dtd">
<!-- Creator: CorelDRAW 2021 (64-Bit) -->
<svg xmlns="http://www.w3.org/2000/svg" xml:space="preserve" width="3.05908in" height="1.66667in" version="1.1" style="shape-rendering:geometricPrecision; text-rendering:geometricPrecision; image-rendering:optimizeQuality; fill-rule:evenodd; clip-rule:evenodd"
viewBox="0 0 886.38 482.92"
 xmlns:xlink="http://www.w3.org/1999/xlink"
 xmlns:xodm="http://www.corel.com/coreldraw/odm/2003">
 <defs>
  <style type="text/css">
   <![CDATA[
    .fil0 {fill:white;fill-rule:nonzero}
   ]]>
  </style>
 </defs>
 <g id="Layer_x0020_1">
  <metadata id="CorelCorpID_0Corel-Layer"/>
  <path class="fil0" d="M399.55 29.66l135.77 0c5.31,0 8.62,5.74 5.97,10.34l-67.87 117.56c-2.65,4.6 -9.28,4.6 -11.94,0l-67.9 -117.56c-2.65,-4.6 0.66,-10.34 5.97,-10.34zm87.4 423.6l-138.03 0c-5.3,0 -8.62,-5.74 -5.97,-10.34l68.99 -119.53c2.65,-4.6 9.28,-4.6 11.94,-0l69.03 119.54c2.65,4.6 -0.66,10.34 -5.97,10.34zm374.16 -453.26c-2.46,0 -4.73,1.31 -5.96,3.44l-15.16 26.22 -220.2 381.47c-2.65,4.6 -9.28,4.6 -11.94,0l-121.3 -210.09c-1.23,-2.13 -1.23,-4.76 0,-6.89l94.95 -164.49 11.17 -19.32c2.66,-4.59 -0.66,-10.34 -5.96,-10.34l-238.56 0c-5.3,0 -8.62,5.74 -5.97,10.33l11.14 19.33 95 164.49c1.23,2.13 1.23,4.76 0,6.89l-24.44 42.32c-2.65,4.59 -9.28,4.59 -11.94,0l-122.21 -211.65 -11.17 -19.35c-2.65,-4.6 -9.29,-4.6 -11.94,0l-11.14 19.31 -243.39 421.59 -11.16 19.32c-2.66,4.6 0.66,10.34 5.96,10.34l18.37 0c2.46,0 4.74,-1.31 5.97,-3.45l15.15 -26.21 220.28 -381.55c2.65,-4.6 9.28,-4.6 11.94,0l120.18 208.2c1.23,2.13 1.23,4.76 0,6.89l-96.08 166.46 -11.14 19.33c-2.65,4.6 0.67,10.33 5.97,10.33l240.82 0c5.3,0 8.62,-5.74 5.97,-10.33l-11.14 -19.33 -96.12 -166.46c-1.23,-2.13 -1.23,-4.76 -0,-6.89l24.4 -42.28c2.65,-4.6 9.28,-4.6 11.94,0l123.29 213.5 11.14 19.32c2.65,4.6 9.28,4.6 11.94,0.01l11.17 -19.32 243.35 -421.47 11.17 -19.32c2.66,-4.59 -0.66,-10.34 -5.97,-10.34l-18.37 0z"/>
 </g>
</svg>
