<?xml version="1.0" encoding="UTF-8"?>
<!DOCTYPE svg PUBLIC "-//W3C//DTD SVG 1.1//EN" "http://www.w3.org/Graphics/SVG/1.1/DTD/svg11.dtd">
<!-- Creator: CorelDRAW 2021 (64-Bit) -->
<svg xmlns="http://www.w3.org/2000/svg" xml:space="preserve" width="0.27387in" height="0.154098in" version="1.1" style="shape-rendering:geometricPrecision; text-rendering:geometricPrecision; image-rendering:optimizeQuality; fill-rule:evenodd; clip-rule:evenodd"
viewBox="0 0 2.53 1.42"
 xmlns:xlink="http://www.w3.org/1999/xlink"
 xmlns:xodm="http://www.corel.com/coreldraw/odm/2003">
 <defs>
  <style type="text/css">
   <![CDATA[
    .fil0 {fill:white}
    .fil1 {fill:white;fill-rule:nonzero}
   ]]>
  </style>
 </defs>
 <g id="Layer_x0020_1">
  <metadata id="CorelCorpID_0Corel-Layer"/>
  <g id="_2652983958016">
   <path class="fil0" d="M1.33 0.77l-0.03 0.05 0.25 0.44 0.03 0.05c0.03,0.05 -0.01,0.1 -0.06,0.1l-0.66 0c-0.05,0 -0.09,-0.06 -0.06,-0.1l0.03 -0.05 0.25 -0.44 -0.29 -0.51 -0.58 1 -0.04 0.07c-0.01,0.02 -0.03,0.03 -0.06,0.03l-0.05 0c-0.05,0 -0.09,-0.06 -0.06,-0.1l0.03 -0.05 0.67 -1.16 0.03 -0.05c0.03,-0.05 0.09,-0.05 0.12,0l0.34 0.59 0.03 -0.05 -0.25 -0.44 -0.03 -0.05c-0.03,-0.05 0.01,-0.1 0.06,-0.1l0.65 0c0.05,0 0.09,0.06 0.06,0.1l-0.03 0.05 -0.25 0.44 0.3 0.52 0.58 -1 0.04 -0.07c0.01,-0.02 0.03,-0.03 0.06,-0.03l0.05 0c0.05,0 0.09,0.06 0.06,0.1l-0.03 0.05 -0.67 1.16 -0.03 0.05c-0.03,0.05 -0.09,0.05 -0.12,-0l-0.03 -0.05 -0.31 -0.54zm0 0.47l-0.14 -0.24 -0.14 0.24 0.27 0zm-0.13 -1.06l0.13 0.23 0.13 -0.23 -0.27 0z"/>
   <path class="fil1" d="M1.15 0.13l0.37 0c0.01,0 0.02,0.02 0.02,0.03l-0.19 0.32c-0.01,0.01 -0.03,0.01 -0.03,0l-0.19 -0.32c-0.01,-0.01 0,-0.03 0.02,-0.03zm0.24 1.16l-0.38 0c-0.01,0 -0.02,-0.02 -0.02,-0.03l0.19 -0.33c0.01,-0.01 0.03,-0.01 0.03,0l0.19 0.33c0.01,0.01 -0,0.03 -0.02,0.03zm1.03 -1.24c-0.01,0 -0.01,0 -0.02,0.01l-0.04 0.07 -0.6 1.05c-0.01,0.01 -0.03,0.01 -0.03,0l-0.33 -0.58c-0,-0.01 -0,-0.01 0,-0.02l0.26 -0.45 0.03 -0.05c0.01,-0.01 -0,-0.03 -0.02,-0.03l-0.65 0c-0.01,0 -0.02,0.02 -0.02,0.03l0.03 0.05 0.26 0.45c0,0.01 0,0.01 0,0.02l-0.07 0.12c-0.01,0.01 -0.03,0.01 -0.03,0l-0.34 -0.58 -0.03 -0.05c-0.01,-0.01 -0.03,-0.01 -0.03,0l-0.03 0.05 -0.67 1.16 -0.03 0.05c-0.01,0.01 0,0.03 0.02,0.03l0.05 0c0.01,0 0.01,-0 0.02,-0.01l0.04 -0.07 0.6 -1.05c0.01,-0.01 0.03,-0.01 0.03,0l0.33 0.57c0,0.01 0,0.01 0,0.02l-0.26 0.46 -0.03 0.05c-0.01,0.01 0,0.03 0.02,0.03l0.66 0c0.01,0 0.02,-0.02 0.02,-0.03l-0.03 -0.05 -0.26 -0.46c-0,-0.01 -0,-0.01 -0,-0.02l0.07 -0.12c0.01,-0.01 0.03,-0.01 0.03,0l0.34 0.59 0.03 0.05c0.01,0.01 0.03,0.01 0.03,0l0.03 -0.05 0.67 -1.16 0.03 -0.05c0.01,-0.01 -0,-0.03 -0.02,-0.03l-0.05 0z"/>
  </g>
 </g>
</svg>
