<?xml version="1.0" encoding="UTF-8"?>
<!DOCTYPE svg PUBLIC "-//W3C//DTD SVG 1.1//EN" "http://www.w3.org/Graphics/SVG/1.1/DTD/svg11.dtd">
<!-- Creator: CorelDRAW 2021 (64-Bit) -->
<svg xmlns="http://www.w3.org/2000/svg" xml:space="preserve" width="0.263146in" height="0.143366in" version="1.1" style="shape-rendering:geometricPrecision; text-rendering:geometricPrecision; image-rendering:optimizeQuality; fill-rule:evenodd; clip-rule:evenodd"
viewBox="0 0 2.34 1.27"
 xmlns:xlink="http://www.w3.org/1999/xlink"
 xmlns:xodm="http://www.corel.com/coreldraw/odm/2003">
 <defs>
  <style type="text/css">
   <![CDATA[
    .fil0 {fill:white;fill-rule:nonzero}
   ]]>
  </style>
 </defs>
 <g id="Layer_x0020_1">
  <metadata id="CorelCorpID_0Corel-Layer"/>
  <path class="fil0" d="M1.05 0.08l0.36 0c0.01,0 0.02,0.02 0.02,0.03l-0.18 0.31c-0.01,0.01 -0.02,0.01 -0.03,0l-0.18 -0.31c-0.01,-0.01 0,-0.03 0.02,-0.03zm0.23 1.12l-0.36 0c-0.01,0 -0.02,-0.02 -0.02,-0.03l0.18 -0.32c0.01,-0.01 0.02,-0.01 0.03,0l0.18 0.32c0.01,0.01 -0,0.03 -0.02,0.03zm0.99 -1.19c-0.01,0 -0.01,0 -0.02,0.01l-0.04 0.07 -0.58 1.01c-0.01,0.01 -0.02,0.01 -0.03,0l-0.32 -0.55c-0,-0.01 -0,-0.01 0,-0.02l0.25 -0.43 0.03 -0.05c0.01,-0.01 -0,-0.03 -0.02,-0.03l-0.63 0c-0.01,0 -0.02,0.02 -0.02,0.03l0.03 0.05 0.25 0.43c0,0.01 0,0.01 0,0.02l-0.06 0.11c-0.01,0.01 -0.02,0.01 -0.03,0l-0.32 -0.56 -0.03 -0.05c-0.01,-0.01 -0.02,-0.01 -0.03,0l-0.03 0.05 -0.64 1.11 -0.03 0.05c-0.01,0.01 0,0.03 0.02,0.03l0.05 0c0.01,0 0.01,-0 0.02,-0.01l0.04 -0.07 0.58 -1.01c0.01,-0.01 0.02,-0.01 0.03,0l0.32 0.55c0,0.01 0,0.01 0,0.02l-0.25 0.44 -0.03 0.05c-0.01,0.01 0,0.03 0.02,0.03l0.63 0c0.01,0 0.02,-0.02 0.02,-0.03l-0.03 -0.05 -0.25 -0.44c-0,-0.01 -0,-0.01 -0,-0.02l0.06 -0.11c0.01,-0.01 0.02,-0.01 0.03,0l0.32 0.56 0.03 0.05c0.01,0.01 0.02,0.01 0.03,0l0.03 -0.05 0.64 -1.11 0.03 -0.05c0.01,-0.01 -0,-0.03 -0.02,-0.03l-0.05 0z"/>
 </g>
</svg>
